<mxfile host="app.diagrams.net" modified="2024-02-07T07:17:02.053Z" agent="Mozilla/5.0 (Windows NT 10.0; Win64; x64; rv:122.0) Gecko/20100101 Firefox/122.0" etag="_XMm4eSyzGUnvBb2TOHr" version="23.1.1" type="device">
  <diagram name="Page-1" id="yiWAWElRlPeZ8IBewo0c">
    <mxGraphModel dx="1434" dy="792" grid="1" gridSize="10" guides="1" tooltips="1" connect="1" arrows="1" fold="1" page="1" pageScale="1" pageWidth="827" pageHeight="1169" math="0" shadow="0">
      <root>
        <mxCell id="0" />
        <mxCell id="1" parent="0" />
        <mxCell id="F_b5OSS82q84xvp6gtbJ-19" value="" style="whiteSpace=wrap;html=1;aspect=fixed;fillColor=none;" parent="1" vertex="1">
          <mxGeometry x="171" y="100" width="499" height="499" as="geometry" />
        </mxCell>
        <mxCell id="B4mcThz-R9SI_HXz10e_-3" style="edgeStyle=orthogonalEdgeStyle;rounded=0;orthogonalLoop=1;jettySize=auto;html=1;" edge="1" parent="1" source="F_b5OSS82q84xvp6gtbJ-1" target="B4mcThz-R9SI_HXz10e_-2">
          <mxGeometry relative="1" as="geometry" />
        </mxCell>
        <mxCell id="B4mcThz-R9SI_HXz10e_-4" style="edgeStyle=orthogonalEdgeStyle;rounded=0;orthogonalLoop=1;jettySize=auto;html=1;entryX=0;entryY=0.5;entryDx=0;entryDy=0;" edge="1" parent="1" source="F_b5OSS82q84xvp6gtbJ-1" target="F_b5OSS82q84xvp6gtbJ-4">
          <mxGeometry relative="1" as="geometry" />
        </mxCell>
        <mxCell id="B4mcThz-R9SI_HXz10e_-5" style="edgeStyle=orthogonalEdgeStyle;rounded=0;orthogonalLoop=1;jettySize=auto;html=1;entryX=0;entryY=0.5;entryDx=0;entryDy=0;" edge="1" parent="1" source="F_b5OSS82q84xvp6gtbJ-1" target="F_b5OSS82q84xvp6gtbJ-5">
          <mxGeometry relative="1" as="geometry" />
        </mxCell>
        <mxCell id="F_b5OSS82q84xvp6gtbJ-1" value="Utilisateur" style="shape=umlActor;verticalLabelPosition=bottom;verticalAlign=top;html=1;outlineConnect=0;" parent="1" vertex="1">
          <mxGeometry x="110" y="190" width="30" height="60" as="geometry" />
        </mxCell>
        <mxCell id="B4mcThz-R9SI_HXz10e_-6" style="edgeStyle=orthogonalEdgeStyle;rounded=0;orthogonalLoop=1;jettySize=auto;html=1;entryX=0;entryY=0.5;entryDx=0;entryDy=0;" edge="1" parent="1" source="F_b5OSS82q84xvp6gtbJ-2" target="F_b5OSS82q84xvp6gtbJ-6">
          <mxGeometry relative="1" as="geometry" />
        </mxCell>
        <mxCell id="B4mcThz-R9SI_HXz10e_-7" style="edgeStyle=orthogonalEdgeStyle;rounded=0;orthogonalLoop=1;jettySize=auto;html=1;" edge="1" parent="1" source="F_b5OSS82q84xvp6gtbJ-2" target="F_b5OSS82q84xvp6gtbJ-7">
          <mxGeometry relative="1" as="geometry" />
        </mxCell>
        <mxCell id="F_b5OSS82q84xvp6gtbJ-2" value="&lt;div&gt;Administrateur&lt;/div&gt;&lt;div&gt;&lt;br&gt;&lt;/div&gt;" style="shape=umlActor;verticalLabelPosition=bottom;verticalAlign=top;html=1;outlineConnect=0;" parent="1" vertex="1">
          <mxGeometry x="110" y="440" width="30" height="60" as="geometry" />
        </mxCell>
        <mxCell id="F_b5OSS82q84xvp6gtbJ-4" value="Afficher les formations" style="ellipse;whiteSpace=wrap;html=1;" parent="1" vertex="1">
          <mxGeometry x="270" y="110" width="120" height="60" as="geometry" />
        </mxCell>
        <mxCell id="F_b5OSS82q84xvp6gtbJ-5" value="Voir une formation" style="ellipse;whiteSpace=wrap;html=1;" parent="1" vertex="1">
          <mxGeometry x="270" y="180" width="120" height="60" as="geometry" />
        </mxCell>
        <mxCell id="F_b5OSS82q84xvp6gtbJ-6" value="Ajouter une formation" style="ellipse;whiteSpace=wrap;html=1;" parent="1" vertex="1">
          <mxGeometry x="280" y="400" width="120" height="60" as="geometry" />
        </mxCell>
        <mxCell id="F_b5OSS82q84xvp6gtbJ-7" value="Supprimmer une formation" style="ellipse;whiteSpace=wrap;html=1;" parent="1" vertex="1">
          <mxGeometry x="280" y="500" width="120" height="60" as="geometry" />
        </mxCell>
        <mxCell id="F_b5OSS82q84xvp6gtbJ-23" value="Application d&#39;achat de formation" style="rounded=0;whiteSpace=wrap;html=1;" parent="1" vertex="1">
          <mxGeometry x="171" y="40" width="499" height="60" as="geometry" />
        </mxCell>
        <mxCell id="B4mcThz-R9SI_HXz10e_-2" value="Acheter une formation" style="ellipse;whiteSpace=wrap;html=1;" vertex="1" parent="1">
          <mxGeometry x="270" y="250" width="120" height="60" as="geometry" />
        </mxCell>
      </root>
    </mxGraphModel>
  </diagram>
</mxfile>
